<svg width="120" height="40" viewBox="0 0 120 40" xmlns="http://www.w3.org/2000/svg">
  <!-- Sun icon -->
  <circle cx="20" cy="20" r="8" fill="#2563eb"/>
  <g stroke="#2563eb" stroke-width="2" fill="none">
    <line x1="20" y1="8" x2="20" y2="4"/>
    <line x1="20" y1="36" x2="20" y2="32"/>
    <line x1="8" y1="20" x2="4" y2="20"/>
    <line x1="36" y1="20" x2="32" y2="20"/>
    <line x1="12" y1="12" x2="9" y2="9"/>
    <line x1="31" y1="31" x2="28" y2="28"/>
    <line x1="12" y1="28" x2="9" y2="31"/>
    <line x1="31" y1="9" x2="28" y2="12"/>
  </g>
  
  <!-- Tech circuit lines -->
  <g stroke="#667eea" stroke-width="1.5" fill="none" opacity="0.7">
    <path d="M45 15 L55 15 L55 25 L65 25"/>
    <path d="M45 25 L55 25 L55 15 L65 15"/>
    <circle cx="45" cy="15" r="2" fill="#667eea"/>
    <circle cx="45" cy="25" r="2" fill="#667eea"/>
    <circle cx="65" cy="15" r="2" fill="#667eea"/>
    <circle cx="65" cy="25" r="2" fill="#667eea"/>
  </g>
  
  <!-- Text -->
  <text x="75" y="25" font-family="Inter, sans-serif" font-size="14" font-weight="600" fill="#1f2937">Sun-Interlink</text>
</svg> 